#!OML:ASF H:\Dans Jumps\Project 1\Capture day 1\Session 1\subject.ASF
:FULLY-SPECIFIED
:DEGREES
172
root 0.218678 14.4384 -17.0079 23.7301 -0.591523 -0.895662
lowerback 27.321 0.277118 0.0635741
upperback 12.6178 0.44083 2.13708
thorax -1.05242 0.133335 2.17078
lowerneck -15.2079 0.988377 -0.178607
upperneck 7.04599 1.72949 -3.38847
head 4.60661 0.622756 -0.883465
rclavicle 1.98785e-015 1.51076e-014
rhumerus -30.6087 -5.01562 -78.6178
rradius 34.4668
rwrist 18.2132
rhand -18.709 -25.4247
rfingers 7.12502
rthumb 7.586 -55.2686
lclavicle 1.98785e-015 1.51076e-014
lhumerus -31.8659 -12.706 92.7547
lradius 36.5807
lwrist 44.5951
lhand -25.759 -3.06752
lfingers 7.12502
lthumb 0.778506 26.9108
rfemur -76.6255 -3.42664 20.1644
rtibia 77.2504
rfoot -23.0027 -4.22944
rtoes 1.15516
lfemur -76.3474 7.67367 -24.3513
ltibia 76.3081
lfoot -21.5536 7.63789
ltoes -0.701983
173
root 0.217558 14.4109 -17.0166 23.7201 -0.619644 -0.857965
lowerback 27.4656 0.302518 0.0279443
upperback 12.663 0.464712 2.13619
thorax -1.06919 0.143158 2.18438
lowerneck -15.2289 0.982018 -0.175573
upperneck 6.92799 1.71814 -3.39955
head 4.57321 0.61809 -0.888342
rclavicle -1.98785e-015 1.78906e-015
rhumerus -30.5881 -4.75035 -78.7947
rradius 34.7625
rwrist 17.8338
rhand -18.5562 -25.4176
rfingers 7.12502
rthumb 7.73349 -55.2562
lclavicle -1.98785e-015 1.78906e-015
lhumerus -31.998 -13.0043 92.9299
lradius 37.4952
lwrist 47.017
lhand -24.0892 -2.27027
lfingers 7.12502
lthumb 2.39122 27.6961
rfemur -76.8582 -3.43962 20.137
rtibia 77.5609
rfoot -23.0777 -4.24963
rtoes 1.12468
lfemur -76.562 7.6838 -24.4126
ltibia 76.6035
lfoot -21.6178 7.69467
ltoes -0.742987
174
root 0.216576 14.3826 -17.0254 23.7316 -0.651584 -0.828712
lowerback 27.5869 0.329157 0.000334367
upperback 12.702 0.491608 2.13405
thorax -1.08219 0.154833 2.19104
lowerneck -15.261 0.976649 -0.163431
upperneck 6.82451 1.70789 -3.42019
head 4.54634 0.613273 -0.897531
rclavicle 5.56597e-015 -5.76476e-015
rhumerus -30.5711 -4.46706 -78.9924
rradius 35.0726
rwrist 17.4237
rhand -18.3772 -25.3883
rfingers 7.12502
rthumb 7.9063 -55.2204
lclavicle 5.56597e-015 -5.76476e-015
lhumerus -32.1364 -13.3241 93.113
lradius 38.4076
lwrist 49.5335
lhand -22.1428 -1.3741
lfingers 7.12502
lthumb 4.27089 28.5628
rfemur -77.1211 -3.4522 20.1223
rtibia 77.8752
rfoot -23.1485 -4.26034
rtoes 1.08757
lfemur -76.8104 7.70482 -24.4756
ltibia 76.9088
lfoot -21.6807 7.7475
ltoes -0.777313
175
root 0.215765 14.3538 -17.0343 23.7554 -0.684893 -0.810464
lowerback 27.6952 0.355412 -0.0146682
upperback 12.7359 0.520721 2.13138
thorax -1.09485 0.168134 2.18916
lowerneck -15.2937 0.972029 -0.144142
upperneck 6.72724 1.69824 -3.44893
head 4.52163 0.608324 -0.910328
rclavicle 8.74653e-015 1.11319e-014
rhumerus -30.5551 -4.1671 -79.2091
rradius 35.3875
rwrist 16.9834
rhand -18.175 -25.315
rfingers 7.12502
rthumb 8.10149 -55.1397
lclavicle 8.74653e-015 1.11319e-014
lhumerus -32.2865 -13.674 93.3115
lradius 39.3256
lwrist 52.1791
lhand -19.9573 -0.49638
lfingers 7.12502
lthumb 6.38107 29.3875
rfemur -77.3994 -3.46469 20.1229
rtibia 78.1891
rfoot -23.2143 -4.2632
rtoes 1.04801
lfemur -77.0781 7.73464 -24.5335
ltibia 77.2199
lfoot -21.7433 7.79629
ltoes -0.808829
176
root 0.215288 14.3251 -17.043 23.7859 -0.716941 -0.799937
lowerback 27.7944 0.378161 -0.0171219
upperback 12.7676 0.548242 2.12849
thorax -1.10573 0.181169 2.1802
lowerneck -15.3252 0.968342 -0.124647
upperneck 6.63125 1.69044 -3.4839
head 4.49724 0.603878 -0.924942
rclavicle 9.14409e-015 4.96962e-015
rhumerus -30.5329 -3.84994 -79.4423
rradius 35.7005
rwrist 16.5232
rhand -17.9539 -25.1989
rfingers 7.12502
rthumb 8.31486 -55.0153
lclavicle 9.14409e-015 4.96962e-015
lhumerus -32.4441 -14.0419 93.5238
lradius 40.2467
lwrist 54.9513
lhand -17.5687 0.332537
lfingers 7.12502
lthumb 8.68652 30.1338
rfemur -77.6831 -3.48322 20.1365
rtibia 78.4995
rfoot -23.2796 -4.25737
rtoes 1.00373
lfemur -77.3545 7.76842 -24.5874
ltibia 77.5326
lfoot -21.8077 7.83873
ltoes -0.835316
177
root 0.215031 14.2968 -17.0518 23.8157 -0.741305 -0.797971
lowerback 27.8961 0.393371 -0.00562502
upperback 12.7978 0.569778 2.12751
thorax -1.11889 0.191787 2.16693
lowerneck -15.3526 0.96665 -0.110646
upperneck 6.53221 1.68656 -3.52207
head 4.47133 0.601095 -0.939353
rclavicle -3.97569e-016 1.78906e-014
rhumerus -30.5036 -3.50623 -79.692
rradius 36.0131
rwrist 16.0424
rhand -17.7097 -25.0583
rfingers 7.12502
rthumb 8.5505 -54.8652
lclavicle -3.97569e-016 1.78906e-014
lhumerus -32.6048 -14.4224 93.7516
lradius 41.1796
lwrist 57.8296
lhand -15.0816 1.1885
lfingers 7.12502
lthumb 11.086 30.8757
rfemur -77.9613 -3.51018 20.165
rtibia 78.8037
rfoot -23.3445 -4.24673
rtoes 0.959468
lfemur -77.6291 7.80021 -24.6309
ltibia 77.8433
lfoot -21.8724 7.87378
ltoes -0.856179
178
root 0.214884 14.2691 -17.0605 23.8365 -0.758321 -0.799
lowerback 28.0081 0.401557 0.0118326
upperback 12.8303 0.584194 2.12874
thorax -1.13378 0.199073 2.15465
lowerneck -15.3805 0.967254 -0.102777
upperneck 6.42958 1.68713 -3.56322
head 4.44446 0.600212 -0.953329
rclavicle 1.19271e-015 7.7526e-015
rhumerus -30.4613 -3.14104 -79.9539
rradius 36.3182
rwrist 15.5567
rhand -17.441 -24.8999
rfingers 7.12502
rthumb 8.80982 -54.696
lclavicle 1.19271e-015 7.7526e-015
lhumerus -32.7557 -14.7987 93.9891
lradius 42.1161
lwrist 60.7442
lhand -12.5641 2.11071
lfingers 7.12502
lthumb 13.5134 31.6523
rfemur -78.2244 -3.54642 20.2011
rtibia 79.1023
rfoot -23.4124 -4.23229
rtoes 0.913441
lfemur -77.8901 7.82608 -24.6663
ltibia 78.1501
lfoot -21.9364 7.90973
ltoes -0.877805
179
root 0.21467 14.2417 -17.0687 23.8501 -0.771685 -0.80182
lowerback 28.1298 0.40471 0.0267413
upperback 12.8646 0.591967 2.13213
thorax -1.15071 0.202903 2.14805
lowerneck -15.3985 0.969036 -0.110812
upperneck 6.31428 1.69073 -3.59338
head 4.41188 0.601428 -0.961108
rclavicle -1.19271e-015 -1.13307e-014
rhumerus -30.4084 -2.755 -80.2279
rradius 36.6254
rwrist 15.0818
rhand -17.1202 -24.7609
rfingers 7.12502
rthumb 9.11939 -54.5437
lclavicle -1.19271e-015 -1.13307e-014
lhumerus -32.8904 -15.1668 94.2368
lradius 43.0301
lwrist 63.615
lhand -10.1744 3.08905
lfingers 7.12502
lthumb 15.8157 32.463
rfemur -78.4746 -3.58603 20.241
rtibia 79.3961
rfoot -23.4822 -4.21693
rtoes 0.860983
lfemur -78.1387 7.84854 -24.6947
ltibia 78.4535
lfoot -22.0027 7.94377
ltoes -0.892902
180
root 0.21427 14.2148 -17.077 23.8551 -0.784046 -0.806879
lowerback 28.264 0.405428 0.0333621
upperback 12.9007 0.595108 2.14059
thorax -1.17111 0.203903 2.15309
lowerneck -15.4203 0.974936 -0.125897
upperneck 6.1977 1.70153 -3.6265
head 4.37966 0.605833 -0.968077
rclavicle 1.19271e-015 1.27222e-014
rhumerus -30.3467 -2.35152 -80.5065
rradius 36.9304
rwrist 14.5983
rhand -16.7889 -24.6154
rfingers 7.12502
rthumb 9.43905 -54.384
lclavicle 1.19271e-015 1.27222e-014
lhumerus -33.0011 -15.5152 94.4928
lradius 43.9098
lwrist 66.3379
lhand -7.98405 4.10817
lfingers 7.12502
lthumb 17.9242 33.3022
rfemur -78.7117 -3.62509 20.2838
rtibia 79.6846
rfoot -23.5521 -4.2032
rtoes 0.797153
lfemur -78.3751 7.87048 -24.7165
ltibia 78.7529
lfoot -22.0707 7.9787
ltoes -0.918038
